<?xml version="1.0" encoding="UTF-8" standalone="no"?>
<!-- Created with Inkscape (http://www.inkscape.org/) -->

<svg
   xmlns:dc="http://purl.org/dc/elements/1.1/"
   xmlns:cc="http://creativecommons.org/ns#"
   xmlns:rdf="http://www.w3.org/1999/02/22-rdf-syntax-ns#"
   xmlns:svg="http://www.w3.org/2000/svg"
   xmlns="http://www.w3.org/2000/svg"
   xmlns:sodipodi="http://sodipodi.sourceforge.net/DTD/sodipodi-0.dtd"
   xmlns:inkscape="http://www.inkscape.org/namespaces/inkscape"
   width="106.25409mm"
   height="86.254074mm"
   viewBox="0 0 376.49087 305.62467"
   id="svg17298"
   version="1.1"
   inkscape:version="0.91 r13725"
   sodipodi:docname="v2-box-front.svg">
  <defs
     id="defs17300" />
  <sodipodi:namedview
     id="base"
     pagecolor="#ffffff"
     bordercolor="#666666"
     borderopacity="1.0"
     inkscape:pageopacity="0.0"
     inkscape:pageshadow="2"
     inkscape:zoom="0.35"
     inkscape:cx="417.53114"
     inkscape:cy="412.81233"
     inkscape:document-units="px"
     inkscape:current-layer="layer1"
     showgrid="false"
     fit-margin-top="0"
     fit-margin-left="0"
     fit-margin-right="0"
     fit-margin-bottom="0"
     inkscape:window-width="1920"
     inkscape:window-height="1017"
     inkscape:window-x="-8"
     inkscape:window-y="-8"
     inkscape:window-maximized="1" />
  <metadata
     id="metadata17303">
    <rdf:RDF>
      <cc:Work
         rdf:about="">
        <dc:format>image/svg+xml</dc:format>
        <dc:type
           rdf:resource="http://purl.org/dc/dcmitype/StillImage" />
        <dc:title></dc:title>
      </cc:Work>
    </rdf:RDF>
  </metadata>
  <g
     inkscape:label="Ebene 1"
     inkscape:groupmode="layer"
     id="layer1"
     transform="translate(702.53114,-639.54987)">
    <g
       transform="translate(-702.08114,639.99987)"
       id="g12660">
      <polygon
         style="fill:none;stroke:#000000;stroke-width:0.90000075"
         points="145.27571,0 173.62219,0 173.62219,14.17324 201.96867,14.17324 201.96867,0 230.31515,0 230.31515,14.17324 258.66163,14.17324 258.66163,0 287.00811,0 287.00811,14.17324 331.29949,14.17324 331.29949,0 375.59086,0 375.59086,40.748065 361.41762,40.748065 361.41762,81.49613 375.59086,81.49613 375.59086,109.84261 361.41762,109.84261 361.41762,138.18909 375.59086,138.18909 375.59086,166.53557 361.41762,166.53557 361.41762,194.88205 375.59086,194.88205 375.59086,223.22853 361.41762,223.22853 361.41762,263.97659 375.59086,263.97659 375.59086,304.72466 331.29949,304.72466 331.29949,290.55142 287.00811,290.55142 287.00811,304.72466 258.66163,304.72466 258.66163,290.55142 230.31515,290.55142 230.31515,304.72466 201.96867,304.72466 201.96867,290.55142 173.62219,290.55142 173.62219,304.72466 145.27571,304.72466 145.27571,290.55142 116.92923,290.55142 116.92923,304.72466 88.58275,304.72466 88.58275,290.55142 44.291375,290.55142 44.291375,304.72466 0,304.72466 0,263.97659 14.17324,263.97659 14.17324,223.22853 0,223.22853 0,194.88205 14.17324,194.88205 14.17324,166.53557 0,166.53557 0,138.18909 14.17324,138.18909 14.17324,109.84261 0,109.84261 0,81.49613 14.17324,81.49613 14.17324,40.748065 0,40.748065 0,0 44.291375,0 44.291375,14.17324 88.58275,14.17324 88.58275,0 116.92923,0 116.92923,14.17324 145.27571,14.17324 "
         id="polygon12662" />
      <circle
         cx="120.47254"
         cy="106.2993"
         r="14.527571"
         style="fill:none;stroke:#000000;stroke-width:0.90000075"
         id="circle12664" />
      <circle
         cx="262.20493"
         cy="106.2993"
         r="28.700811"
         style="fill:none;stroke:#000000;stroke-width:0.90000075"
         id="circle12666" />
      <rect
         x="155.90564"
         y="219.68523"
         width="70.866203"
         height="49.606339"
         rx="10.62993"
         ry="10.62993"
         style="fill:none;stroke:#000000;stroke-width:0.90000075"
         id="rect12668" />
      <g
         transform="scale(0.00865066,0.00865066)"
         id="g12670"
         style="fill:#ff0000;stroke:#ff0000">
        <g
           transform="translate(-6231,819)"
           id="g12672"
           style="fill:#ff0000;stroke:#ff0000">
          <path
             inkscape:connector-curvature="0"
             transform="matrix(1,0,0,-1,13926.4,6144)"
             d="m 848,0 -496,1296 -8,0 c 9.33301,-102.667 14,-224.667 14,-366 l 0,-930 -157,0 0,1462 256,0 463,-1206 8,0 467,1206 254,0 0,-1462 -170,0 0,942 c 0,108 4.667,225.333 14,352 l -8,0 L 985,0 848,0 Z"
             id="path12674"
             style="fill:#ff0000;stroke:#ff0000;stroke-width:0" />
          <path
             inkscape:connector-curvature="0"
             transform="matrix(1,0,0,-1,15775.4,6144)"
             d="m 1122,549 c 0,-178.667 -44.999,-318.168 -134.999,-418.501 -90,-100.333 -214.333,-150.5 -373,-150.5 -98,0 -185,23 -261,69 -76,46 -134.667,112 -176,198 -41.333,86 -62,186.667 -62,302 0,178.667 44.667,317.834 134,417.501 89.333,99.667 213.333,149.5 372,149.5 153.333,0 275.166,-51 365.499,-153 C 1076.833,861 1122,723 1122,549 Z m -834.999,-10e-4 c 0,-140 28,-246.667 84,-320 56,-73.333 138.333,-110 247,-110 108.667,0 191.167,36.5 247.5,109.5 56.333,73 84.5,179.833 84.5,320.5 0,139.333 -28.167,245.166 -84.5,317.499 -56.333,72.333 -139.5,108.5 -249.5,108.5 -108.667,0 -190.667,-35.667 -246,-107 -55.333,-71.333 -83,-177.666 -83,-318.999 z"
             id="path12676"
             style="fill:#ff0000;stroke:#ff0000;stroke-width:0" />
          <path
             inkscape:connector-curvature="0"
             transform="matrix(1,0,0,-1,17012.4,6144)"
             d="m 530,117 c 29.333,0 57.667,2.16797 85,6.50098 27.333,4.33301 49,8.83301 65,13.5 l 0,-127 c -18,-8.66699 -44.5,-15.834 -79.5,-21.501 -35,-5.667 -66.5,-8.5 -94.5,-8.5 -212,0 -318,111.667 -318,335 l 0,652 -157,0 0,80.00002 157,69 70,234 96,0 0,-254 318,0 0,-129.00002 -318,0 0,-645 c 0,-66 15.667,-116.667 47,-152 31.333,-35.333 74.333,-53 129,-53 z"
             id="path12678"
             style="fill:#ff0000;stroke:#ff0000;stroke-width:0" />
          <path
             inkscape:connector-curvature="0"
             transform="matrix(1,0,0,-1,17735.4,6144)"
             d="m 1122,549 c 0,-178.667 -44.999,-318.168 -134.999,-418.501 -90,-100.333 -214.333,-150.5 -373,-150.5 -98,0 -185,23 -261,69 -76,46 -134.667,112 -176,198 -41.333,86 -62,186.667 -62,302 0,178.667 44.667,317.834 134,417.501 89.333,99.667 213.333,149.5 372,149.5 153.333,0 275.166,-51 365.499,-153 C 1076.833,861 1122,723 1122,549 Z m -834.999,-10e-4 c 0,-140 28,-246.667 84,-320 56,-73.333 138.333,-110 247,-110 108.667,0 191.167,36.5 247.5,109.5 56.333,73 84.5,179.833 84.5,320.5 0,139.333 -28.167,245.166 -84.5,317.499 -56.333,72.333 -139.5,108.5 -249.5,108.5 -108.667,0 -190.667,-35.667 -246,-107 -55.333,-71.333 -83,-177.666 -83,-318.999 z"
             id="path12680"
             style="fill:#ff0000;stroke:#ff0000;stroke-width:0" />
          <path
             inkscape:connector-curvature="0"
             transform="matrix(1,0,0,-1,18972.4,6144)"
             d="m 676,1116 c 48.667,0 92.333,-4 131,-12 L 784,950 C 738.667,960 698.667,965 664,965 575.333,965 499.5,929 436.5,857 373.5,785 342,695.333 342,588 l 0,-588 -166,0 0,1096 137,0 19,-203 8,0 c 40.667,71.333 89.667,126.333 147,165 57.333,38.667 120.333,58 189,58 z"
             id="path12682"
             style="fill:#ff0000;stroke:#ff0000;stroke-width:0" />
          <path
             inkscape:connector-curvature="0"
             transform="matrix(1,0,0,-1,19808.4,6144)"
             d=""
             id="path12684"
             style="fill:#ff0000;stroke:#ff0000;stroke-width:0" />
          <path
             inkscape:connector-curvature="0"
             transform="matrix(1,0,0,-1,20340.4,6144)"
             d="M 1128,1036 C 1128,888 1077.5,774.167 976.5,694.5 875.5,614.833 731,575 543,575 l -172,0 0,-575 -170,0 0,1462 379,0 c 365.333,0 548,-142 548,-426 z m -757,-315 153,0 c 150.667,0 259.667,24.333 327,73 67.333,48.667 101,126.667 101,234 0,96.667 -31.667,168.667 -95,216 -63.333,47.333 -162,71 -296,71 l -190,0 0,-594 z"
             id="path12686"
             style="fill:#ff0000;stroke:#ff0000;stroke-width:0" />
          <path
             inkscape:connector-curvature="0"
             transform="matrix(1,0,0,-1,21573.4,6144)"
             d="m 1122,549 c 0,-178.667 -44.999,-318.168 -134.999,-418.501 -90,-100.333 -214.333,-150.5 -373,-150.5 -98,0 -185,23 -261,69 -76,46 -134.667,112 -176,198 -41.333,86 -62,186.667 -62,302 0,178.667 44.667,317.834 134,417.501 89.333,99.667 213.333,149.5 372,149.5 153.333,0 275.166,-51 365.499,-153 C 1076.833,861 1122,723 1122,549 Z m -834.999,-10e-4 c 0,-140 28,-246.667 84,-320 56,-73.333 138.333,-110 247,-110 108.667,0 191.167,36.5 247.5,109.5 56.333,73 84.5,179.833 84.5,320.5 0,139.333 -28.167,245.166 -84.5,317.499 -56.333,72.333 -139.5,108.5 -249.5,108.5 -108.667,0 -190.667,-35.667 -246,-107 -55.333,-71.333 -83,-177.666 -83,-318.999 z"
             id="path12688"
             style="fill:#ff0000;stroke:#ff0000;stroke-width:0" />
          <path
             inkscape:connector-curvature="0"
             transform="matrix(1,0,0,-1,22810.4,6144)"
             d="M 1071,0 870.002,643.002 c -12.667,39.333 -36.334,128.666 -71.001,267.999 l -8,0 c -26.667,-116.667 -50,-206.667 -70,-270 l -207,-641 -192,0 -299,1096 174,0 161.5,-629 c 37,-144 58.167,-241 63.5,-291 l 8,0 c 7.33301,38 19.166,87.167 35.499,147.5 C 481.833,383.834 496,431.667 508,467 l 201,629 180,0 196,-629 c 37.333,-114.667 62.666,-211 75.999,-289 l 8,0 c 2.667,24 9.834,61 21.501,111 11.667,50 81.167,319 208.5,807 l 172,0 L 1268,0 1071,0 Z"
             id="path12690"
             style="fill:#ff0000;stroke:#ff0000;stroke-width:0" />
          <path
             inkscape:connector-curvature="0"
             transform="matrix(1,0,0,-1,24403.4,6144)"
             d="m 639,-20 c -162,0 -289.833,49.334 -383.5,148.001 -93.667,98.667 -140.5,235.667 -140.5,411 0,176.667 43.5,317 130.5,421 87,104 203.833,156 350.5,156 137.333,0 246,-45.167 326,-135.5 80,-90.333 120,-209.5 120,-357.5 l 0,-105 -755,0 C 290.33301,389.334 322.833,291.667 384.5,225 446.167,158.333 533,125 645,125 c 118,0 234.667,24.667 350,74 L 995,51 C 936.333,25.667 880.833,7.5 828.5,-3.5 776.167,-14.5 713,-20 639,-20 Z m -45,997.001 c -88,0 -158.167,-28.6689 -210.5,-86.002 C 331.167,833.6659 300.334,754.333 291.001,653 l 573,0 c 0,104.667 -23.333,184.834 -70,240.501 -46.667,55.667 -113.334,83.5 -200.001,83.5 z"
             id="path12692"
             style="fill:#ff0000;stroke:#ff0000;stroke-width:0" />
          <path
             inkscape:connector-curvature="0"
             transform="matrix(1,0,0,-1,25552.4,6144)"
             d="m 676,1116 c 48.667,0 92.333,-4 131,-12 L 784,950 C 738.667,960 698.667,965 664,965 575.333,965 499.5,929 436.5,857 373.5,785 342,695.333 342,588 l 0,-588 -166,0 0,1096 137,0 19,-203 8,0 c 40.667,71.333 89.667,126.333 147,165 57.333,38.667 120.333,58 189,58 z"
             id="path12694"
             style="fill:#ff0000;stroke:#ff0000;stroke-width:0" />
        </g>
      </g>
      <g
         transform="scale(0.00865066,0.00865066)"
         id="g12696"
         style="fill:#ff0000;stroke:#ff0000">
        <g
           transform="translate(-4801.5,819)"
           id="g12698"
           style="fill:#ff0000;stroke:#ff0000">
          <path
             inkscape:connector-curvature="0"
             transform="matrix(1,0,0,-1,30310.4,6144)"
             d="m 827,1331 c -160.667,0 -287.498,-53.501 -380.498,-160.501 -93,-107 -139.5,-253.5 -139.5,-439.5 0,-191.333 44.833,-339.166 134.5,-443.499 89.667,-104.333 217.5,-156.5 383.5,-156.5 102,0 218.333,18.333 349,55 l 0,-149 c -101.333,-38 -226.333,-57 -375,-57 -215.333,0 -381.5,65.333 -498.5,196 -117,130.667 -175.5,316.334 -175.5,557.001 0,150.667 28.167,282.667 84.5,396 56.333,113.333 137.666,200.666 243.999,261.999 106.333,61.333 231.5,92 375.5,92 153.333,0 287.333,-28 402,-84 l -72,-146 c -110.667,52 -221.334,78 -332.001,78 z"
             id="path12700"
             style="fill:#ff0000;stroke:#ff0000;stroke-width:0" />
          <path
             inkscape:connector-curvature="0"
             transform="matrix(1,0,0,-1,31602.4,6144)"
             d="m 1122,549 c 0,-178.667 -44.999,-318.168 -134.999,-418.501 -90,-100.333 -214.333,-150.5 -373,-150.5 -98,0 -185,23 -261,69 -76,46 -134.667,112 -176,198 -41.333,86 -62,186.667 -62,302 0,178.667 44.667,317.834 134,417.501 89.333,99.667 213.333,149.5 372,149.5 153.333,0 275.166,-51 365.499,-153 C 1076.833,861 1122,723 1122,549 Z m -834.999,-10e-4 c 0,-140 28,-246.667 84,-320 56,-73.333 138.333,-110 247,-110 108.667,0 191.167,36.5 247.5,109.5 56.333,73 84.5,179.833 84.5,320.5 0,139.333 -28.167,245.166 -84.5,317.499 -56.333,72.333 -139.5,108.5 -249.5,108.5 -108.667,0 -190.667,-35.667 -246,-107 -55.333,-71.333 -83,-177.666 -83,-318.999 z"
             id="path12702"
             style="fill:#ff0000;stroke:#ff0000;stroke-width:0" />
          <path
             inkscape:connector-curvature="0"
             transform="matrix(1,0,0,-1,32839.4,6144)"
             d="m 926,0 0.002,709 c 0,89.333 -20.333,156 -61,200 -40.667,44 -104.334,66 -191.001,66 -114.667,0 -198.667,-31 -252,-93 -53.333,-62 -80,-164.333 -80,-307 l 0,-575 -166,0 0,1096 135,0 27,-150 8,0 c 34,54 81.667,95.833 143,125.5 61.333,29.667 129.666,44.5 204.999,44.5 132,0 231.333,-31.833 298,-95.5 C 1058.667,956.833 1092,855 1092,715 L 1092,0 925.99995,0 Z"
             id="path12704"
             style="fill:#ff0000;stroke:#ff0000;stroke-width:0" />
          <path
             inkscape:connector-curvature="0"
             transform="matrix(1,0,0,-1,34096.4,6144)"
             d="m 530,117 c 29.333,0 57.667,2.16797 85,6.50098 27.333,4.33301 49,8.83301 65,13.5 l 0,-127 c -18,-8.66699 -44.5,-15.834 -79.5,-21.501 -35,-5.667 -66.5,-8.5 -94.5,-8.5 -212,0 -318,111.667 -318,335 l 0,652 -157,0 0,80.00002 157,69 70,234 96,0 0,-254 318,0 0,-129.00002 -318,0 0,-645 c 0,-66 15.667,-116.667 47,-152 31.333,-35.333 74.333,-53 129,-53 z"
             id="path12706"
             style="fill:#ff0000;stroke:#ff0000;stroke-width:0" />
          <path
             inkscape:connector-curvature="0"
             transform="matrix(1,0,0,-1,34819.4,6144)"
             d="m 676,1116 c 48.667,0 92.333,-4 131,-12 L 784,950 C 738.667,960 698.667,965 664,965 575.333,965 499.5,929 436.5,857 373.5,785 342,695.333 342,588 l 0,-588 -166,0 0,1096 137,0 19,-203 8,0 c 40.667,71.333 89.667,126.333 147,165 57.333,38.667 120.333,58 189,58 z"
             id="path12708"
             style="fill:#ff0000;stroke:#ff0000;stroke-width:0" />
          <path
             inkscape:connector-curvature="0"
             transform="matrix(1,0,0,-1,35655.4,6144)"
             d="m 1122,549 c 0,-178.667 -44.999,-318.168 -134.999,-418.501 -90,-100.333 -214.333,-150.5 -373,-150.5 -98,0 -185,23 -261,69 -76,46 -134.667,112 -176,198 -41.333,86 -62,186.667 -62,302 0,178.667 44.667,317.834 134,417.501 89.333,99.667 213.333,149.5 372,149.5 153.333,0 275.166,-51 365.499,-153 C 1076.833,861 1122,723 1122,549 Z m -834.999,-10e-4 c 0,-140 28,-246.667 84,-320 56,-73.333 138.333,-110 247,-110 108.667,0 191.167,36.5 247.5,109.5 56.333,73 84.5,179.833 84.5,320.5 0,139.333 -28.167,245.166 -84.5,317.499 -56.333,72.333 -139.5,108.5 -249.5,108.5 -108.667,0 -190.667,-35.667 -246,-107 -55.333,-71.333 -83,-177.666 -83,-318.999 z"
             id="path12710"
             style="fill:#ff0000;stroke:#ff0000;stroke-width:0" />
          <path
             inkscape:connector-curvature="0"
             transform="matrix(1,0,0,-1,36892.4,6144)"
             d="m 342,0 -166,0 0,1556 166,0 0,-1556 z"
             id="path12712"
             style="fill:#ff0000;stroke:#ff0000;stroke-width:0" />
          <path
             inkscape:connector-curvature="0"
             transform="matrix(1,0,0,-1,37410.4,6144)"
             d="m 342,0 -166,0 0,1556 166,0 0,-1556 z"
             id="path12714"
             style="fill:#ff0000;stroke:#ff0000;stroke-width:0" />
          <path
             inkscape:connector-curvature="0"
             transform="matrix(1,0,0,-1,37928.4,6144)"
             d="m 639,-20 c -162,0 -289.833,49.334 -383.5,148.001 -93.667,98.667 -140.5,235.667 -140.5,411 0,176.667 43.5,317 130.5,421 87,104 203.833,156 350.5,156 137.333,0 246,-45.167 326,-135.5 80,-90.333 120,-209.5 120,-357.5 l 0,-105 -755,0 C 290.33301,389.334 322.833,291.667 384.5,225 446.167,158.333 533,125 645,125 c 118,0 234.667,24.667 350,74 L 995,51 C 936.333,25.667 880.833,7.5 828.5,-3.5 776.167,-14.5 713,-20 639,-20 Z m -45,997.001 c -88,0 -158.167,-28.6689 -210.5,-86.002 C 331.167,833.6659 300.334,754.333 291.001,653 l 573,0 c 0,104.667 -23.333,184.834 -70,240.501 -46.667,55.667 -113.334,83.5 -200.001,83.5 z"
             id="path12716"
             style="fill:#ff0000;stroke:#ff0000;stroke-width:0" />
          <path
             inkscape:connector-curvature="0"
             transform="matrix(1,0,0,-1,39077.4,6144)"
             d="m 676,1116 c 48.667,0 92.333,-4 131,-12 L 784,950 C 738.667,960 698.667,965 664,965 575.333,965 499.5,929 436.5,857 373.5,785 342,695.333 342,588 l 0,-588 -166,0 0,1096 137,0 19,-203 8,0 c 40.667,71.333 89.667,126.333 147,165 57.333,38.667 120.333,58 189,58 z"
             id="path12718"
             style="fill:#ff0000;stroke:#ff0000;stroke-width:0" />
        </g>
      </g>
      <g
         transform="scale(0.00865066,0.00865066)"
         id="g12720"
         style="fill:#ff0000;stroke:#ff0000">
        <g
           transform="translate(-1262.5,819)"
           id="g12722"
           style="fill:#ff0000;stroke:#ff0000">
          <path
             inkscape:connector-curvature="0"
             transform="matrix(1,0,0,-1,22118.4,22118.4)"
             d="M 1128,1036 C 1128,888 1077.5,774.167 976.5,694.5 875.5,614.833 731,575 543,575 l -172,0 0,-575 -170,0 0,1462 379,0 c 365.333,0 548,-142 548,-426 z m -757,-315 153,0 c 150.667,0 259.667,24.333 327,73 67.333,48.667 101,126.667 101,234 0,96.667 -31.667,168.667 -95,216 -63.333,47.333 -162,71 -296,71 l -190,0 0,-594 z"
             id="path12724"
             style="fill:#ff0000;stroke:#ff0000;stroke-width:0" />
          <path
             inkscape:connector-curvature="0"
             transform="matrix(1,0,0,-1,23351.4,22118.4)"
             d="m 827,1331 c -160.667,0 -287.498,-53.501 -380.498,-160.501 -93,-107 -139.5,-253.5 -139.5,-439.5 0,-191.333 44.833,-339.166 134.5,-443.499 89.667,-104.333 217.5,-156.5 383.5,-156.5 102,0 218.333,18.333 349,55 l 0,-149 c -101.333,-38 -226.333,-57 -375,-57 -215.333,0 -381.5,65.333 -498.5,196 -117,130.667 -175.5,316.334 -175.5,557.001 0,150.667 28.167,282.667 84.5,396 56.333,113.333 137.666,200.666 243.999,261.999 106.333,61.333 231.5,92 375.5,92 153.333,0 287.333,-28 402,-84 l -72,-146 c -110.667,52 -221.334,78 -332.001,78 z"
             id="path12726"
             style="fill:#ff0000;stroke:#ff0000;stroke-width:0" />
        </g>
      </g>
    </g>
  </g>
</svg>
