<?xml version="1.0" encoding="UTF-8" standalone="no"?>
<svg
   xmlns:dc="http://purl.org/dc/elements/1.1/"
   xmlns:cc="http://creativecommons.org/ns#"
   xmlns:rdf="http://www.w3.org/1999/02/22-rdf-syntax-ns#"
   xmlns:svg="http://www.w3.org/2000/svg"
   xmlns="http://www.w3.org/2000/svg"
   xmlns:sodipodi="http://sodipodi.sourceforge.net/DTD/sodipodi-0.dtd"
   xmlns:inkscape="http://www.inkscape.org/namespaces/inkscape"
   version="1.1"
   width="330.7mm"
   height="204.7mm"
   viewBox=" 0 0 1171.7726169999999 725.3155569999999"
   id="svg12658"
   inkscape:version="0.91 r13725"
   sodipodi:docname="v2-box-holes.svg">
  <metadata
     id="metadata12752">
    <rdf:RDF>
      <cc:Work
         rdf:about="">
        <dc:format>image/svg+xml</dc:format>
        <dc:type
           rdf:resource="http://purl.org/dc/dcmitype/StillImage" />
      </cc:Work>
    </rdf:RDF>
  </metadata>
  <defs
     id="defs12750" />
  <sodipodi:namedview
     pagecolor="#ffffff"
     bordercolor="#666666"
     borderopacity="1"
     objecttolerance="10"
     gridtolerance="10"
     guidetolerance="10"
     inkscape:pageopacity="0"
     inkscape:pageshadow="2"
     inkscape:window-width="1920"
     inkscape:window-height="1017"
     id="namedview12748"
     showgrid="false"
     inkscape:zoom="1.1119914"
     inkscape:cx="585.88585"
     inkscape:cy="362.65747"
     inkscape:window-x="-8"
     inkscape:window-y="-8"
     inkscape:window-maximized="1"
     inkscape:current-layer="g12660" />
  <!-- Front-->
  <g
     transform="translate(22.5000185, 22.5000185) "
     id="g12660">
    <polygon
       style="stroke:#000000; fill:none; stroke-width:0.90000074"
       points="0, 0 44.291375, 0 44.291375, 14.17324 88.58275, 14.17324 88.58275, 0 116.92923, 0 116.92923, 14.17324 145.27571, 14.17324 145.27571, 0 173.62219, 0 173.62219, 14.17324 201.96867, 14.17324 201.96867, 0 230.31515, 0 230.31515, 14.17324 258.66163, 14.17324 258.66163, 0 287.00811, 0 287.00811, 14.17324 331.299485, 14.17324 331.299485, 0 375.59086, 0 375.59086, 40.748065 361.41762, 40.748065 361.41762, 81.49613 375.59086, 81.49613 375.59086, 109.84261 361.41762, 109.84261 361.41762, 138.18909 375.59086, 138.18909 375.59086, 166.53557 361.41762, 166.53557 361.41762, 194.88205 375.59086, 194.88205 375.59086, 223.22852999999998 361.41762, 223.22852999999998 361.41762, 263.976595 375.59086, 263.976595 375.59086, 304.72466 331.299485, 304.72466 331.299485, 290.55141999999995 287.00811, 290.55141999999995 287.00811, 304.72466 258.66163, 304.72466 258.66163, 290.55141999999995 230.31515, 290.55141999999995 230.31515, 304.72466 201.96867, 304.72466 201.96867, 290.55141999999995 173.62219, 290.55141999999995 173.62219, 304.72466 145.27571, 304.72466 145.27571, 290.55141999999995 116.92923, 290.55141999999995 116.92923, 304.72466 88.58275, 304.72466 88.58275, 290.55141999999995 44.291375, 290.55141999999995 44.291375, 304.72466 0, 304.72466 0, 263.976595 14.17324, 263.976595 14.17324, 223.22852999999998 0, 223.22852999999998 0, 194.88205 14.17324, 194.88205 14.17324, 166.53557 0, 166.53557 0, 138.18909 14.17324, 138.18909 14.17324, 109.84261 0, 109.84261 0, 81.49613 14.17324, 81.49613 14.17324, 40.748065 0, 40.748065 "
       id="polygon12662" />
    <circle
       cx="120.47254"
       cy="106.2993"
       r="14.527570999999998"
       style="stroke:#000000;stroke-width:0.90000074;fill:none"
       id="circle12664" />
    <circle
       cx="262.20494"
       cy="106.2993"
       r="28.700810999999998"
       style="stroke:#000000;stroke-width:0.90000074;fill:none"
       id="circle12666" />
    <rect
       x="155.90564"
       y="219.68522"
       width="70.86619999999999"
       height="49.60634"
       rx="10.62993"
       ry="10.62993"
       style="stroke:#000000;stroke-width:0.90000074;fill:none"
       id="rect12668" />
    <g
       transform="scale(0.008650659179687499)"
       id="g12670"
       style="stroke:#ff0000;fill:#ff0000">
      <g
         transform="translate(-6231,819)"
         id="g12672"
         style="stroke:#ff0000;fill:#ff0000">
        <path
           transform="translate(13926.400000000001, 6144.000000000001)rotate(180) scale(-1, 1)"
           stroke-width="0"
           fill="#000000"
           d="M848 0l-496 1296h-8c9.33301 -102.667 14 -224.667 14 -366v-930h-157v1462h256l463 -1206h8l467 1206h254v-1462h-170v942c0 108 4.66699 225.333 14 352h-8l-500 -1294h-137z"
           id="path12674"
           style="stroke:#ff0000;fill:#ff0000" />
        <path
           transform="translate(15775.400000000001, 6144.000000000001)rotate(180) scale(-1, 1)"
           stroke-width="0"
           fill="#000000"
           d="M1122 549c0 -178.667 -44.999 -318.168 -134.999 -418.501s-214.333 -150.5 -373 -150.5c-98 0 -185 23 -261 69s-134.667 112 -176 198s-62 186.667 -62 302c0 178.667 44.667 317.834 134 417.501s213.333 149.5 372 149.5c153.333 0 275.166 -51 365.499 -153 s135.5 -240 135.5 -414zM287.001 548.999c0 -140 28 -246.667 84 -320s138.333 -110 247 -110s191.167 36.5 247.5 109.5s84.5 179.833 84.5 320.5c0 139.333 -28.167 245.166 -84.5 317.499s-139.5 108.5 -249.5 108.5c-108.667 0 -190.667 -35.667 -246 -107 s-83 -177.666 -83 -318.999z"
           id="path12676"
           style="stroke:#ff0000;fill:#ff0000" />
        <path
           transform="translate(17012.4, 6144.000000000001)rotate(180) scale(-1, 1)"
           stroke-width="0"
           fill="#000000"
           d="M530 117c29.333 0 57.667 2.16797 85 6.50098s49 8.83301 65 13.5v-127c-18 -8.66699 -44.5 -15.834 -79.5 -21.501s-66.5 -8.5 -94.5 -8.5c-212 0 -318 111.667 -318 335v652h-157v80l157 69l70 234h96v-254h318v-129h-318v-645c0 -66 15.667 -116.667 47 -152 s74.333 -53 129 -53z"
           id="path12678"
           style="stroke:#ff0000;fill:#ff0000" />
        <path
           transform="translate(17735.4, 6144.000000000001)rotate(180) scale(-1, 1)"
           stroke-width="0"
           fill="#000000"
           d="M1122 549c0 -178.667 -44.999 -318.168 -134.999 -418.501s-214.333 -150.5 -373 -150.5c-98 0 -185 23 -261 69s-134.667 112 -176 198s-62 186.667 -62 302c0 178.667 44.667 317.834 134 417.501s213.333 149.5 372 149.5c153.333 0 275.166 -51 365.499 -153 s135.5 -240 135.5 -414zM287.001 548.999c0 -140 28 -246.667 84 -320s138.333 -110 247 -110s191.167 36.5 247.5 109.5s84.5 179.833 84.5 320.5c0 139.333 -28.167 245.166 -84.5 317.499s-139.5 108.5 -249.5 108.5c-108.667 0 -190.667 -35.667 -246 -107 s-83 -177.666 -83 -318.999z"
           id="path12680"
           style="stroke:#ff0000;fill:#ff0000" />
        <path
           transform="translate(18972.4, 6144.000000000001)rotate(180) scale(-1, 1)"
           stroke-width="0"
           fill="#000000"
           d="M676 1116c48.667 0 92.333 -4 131 -12l-23 -154c-45.333 10 -85.333 15 -120 15c-88.667 0 -164.5 -36 -227.5 -108s-94.5 -161.667 -94.5 -269v-588h-166v1096h137l19 -203h8c40.667 71.333 89.667 126.333 147 165s120.333 58 189 58z"
           id="path12682"
           style="stroke:#ff0000;fill:#ff0000" />
        <path
           transform="translate(19808.4, 6144.000000000001)rotate(180) scale(-1, 1)"
           stroke-width="0"
           fill="#000000"
           d=""
           id="path12684"
           style="stroke:#ff0000;fill:#ff0000" />
        <path
           transform="translate(20340.4, 6144.000000000001)rotate(180) scale(-1, 1)"
           stroke-width="0"
           fill="#000000"
           d="M1128 1036c0 -148 -50.5 -261.833 -151.5 -341.5s-245.5 -119.5 -433.5 -119.5h-172v-575h-170v1462h379c365.333 0 548 -142 548 -426zM371 721h153c150.667 0 259.667 24.333 327 73s101 126.667 101 234c0 96.667 -31.667 168.667 -95 216s-162 71 -296 71h-190v-594z"
           id="path12686"
           style="stroke:#ff0000;fill:#ff0000" />
        <path
           transform="translate(21573.4, 6144.000000000001)rotate(180) scale(-1, 1)"
           stroke-width="0"
           fill="#000000"
           d="M1122 549c0 -178.667 -44.999 -318.168 -134.999 -418.501s-214.333 -150.5 -373 -150.5c-98 0 -185 23 -261 69s-134.667 112 -176 198s-62 186.667 -62 302c0 178.667 44.667 317.834 134 417.501s213.333 149.5 372 149.5c153.333 0 275.166 -51 365.499 -153 s135.5 -240 135.5 -414zM287.001 548.999c0 -140 28 -246.667 84 -320s138.333 -110 247 -110s191.167 36.5 247.5 109.5s84.5 179.833 84.5 320.5c0 139.333 -28.167 245.166 -84.5 317.499s-139.5 108.5 -249.5 108.5c-108.667 0 -190.667 -35.667 -246 -107 s-83 -177.666 -83 -318.999z"
           id="path12688"
           style="stroke:#ff0000;fill:#ff0000" />
        <path
           transform="translate(22810.4, 6144.000000000001)rotate(180) scale(-1, 1)"
           stroke-width="0"
           fill="#000000"
           d="M1071 0l-200.998 643.002c-12.667 39.333 -36.334 128.666 -71.001 267.999h-8c-26.667 -116.667 -50 -206.667 -70 -270l-207 -641h-192l-299 1096h174l161.5 -629c37 -144 58.167 -241 63.5 -291h8c7.33301 38 19.166 87.167 35.499 147.5s30.5 108.166 42.5 143.499 l201 629h180l196 -629c37.333 -114.667 62.666 -211 75.999 -289h8c2.66699 24 9.83398 61 21.501 111s81.167 319 208.5 807h172l-303 -1096h-197z"
           id="path12690"
           style="stroke:#ff0000;fill:#ff0000" />
        <path
           transform="translate(24403.4, 6144.000000000001)rotate(180) scale(-1, 1)"
           stroke-width="0"
           fill="#000000"
           d="M639 -20c-162 0 -289.833 49.334 -383.5 148.001s-140.5 235.667 -140.5 411c0 176.667 43.5 317 130.5 421s203.833 156 350.5 156c137.333 0 246 -45.167 326 -135.5s120 -209.5 120 -357.5v-105h-755c3.33301 -128.667 35.833 -226.334 97.5 -293.001 s148.5 -100 260.5 -100c118 0 234.667 24.667 350 74v-148c-58.667 -25.333 -114.167 -43.5 -166.5 -54.5s-115.5 -16.5 -189.5 -16.5zM594 977.001c-88 0 -158.167 -28.6689 -210.5 -86.002s-83.166 -136.666 -92.499 -237.999h573c0 104.667 -23.333 184.834 -70 240.501 s-113.334 83.5 -200.001 83.5z"
           id="path12692"
           style="stroke:#ff0000;fill:#ff0000" />
        <path
           transform="translate(25552.4, 6144.000000000001)rotate(180) scale(-1, 1)"
           stroke-width="0"
           fill="#000000"
           d="M676 1116c48.667 0 92.333 -4 131 -12l-23 -154c-45.333 10 -85.333 15 -120 15c-88.667 0 -164.5 -36 -227.5 -108s-94.5 -161.667 -94.5 -269v-588h-166v1096h137l19 -203h8c40.667 71.333 89.667 126.333 147 165s120.333 58 189 58z"
           id="path12694"
           style="stroke:#ff0000;fill:#ff0000" />
      </g>
    </g>
    <g
       transform="scale(0.008650659179687499)"
       id="g12696"
       style="stroke:#ff0000;fill:#ff0000">
      <g
         transform="translate(-4801.5,819)"
         id="g12698"
         style="stroke:#ff0000;fill:#ff0000">
        <path
           transform="translate(30310.400000000005, 6144.000000000001)rotate(180) scale(-1, 1)"
           stroke-width="0"
           fill="#000000"
           d="M827 1331c-160.667 0 -287.498 -53.501 -380.498 -160.501s-139.5 -253.5 -139.5 -439.5c0 -191.333 44.833 -339.166 134.5 -443.499s217.5 -156.5 383.5 -156.5c102 0 218.333 18.333 349 55v-149c-101.333 -38 -226.333 -57 -375 -57 c-215.333 0 -381.5 65.333 -498.5 196s-175.5 316.334 -175.5 557.001c0 150.667 28.167 282.667 84.5 396s137.666 200.666 243.999 261.999s231.5 92 375.5 92c153.333 0 287.333 -28 402 -84l-72 -146c-110.667 52 -221.334 78 -332.001 78z"
           id="path12700"
           style="stroke:#ff0000;fill:#ff0000" />
        <path
           transform="translate(31602.400000000005, 6144.000000000001)rotate(180) scale(-1, 1)"
           stroke-width="0"
           fill="#000000"
           d="M1122 549c0 -178.667 -44.999 -318.168 -134.999 -418.501s-214.333 -150.5 -373 -150.5c-98 0 -185 23 -261 69s-134.667 112 -176 198s-62 186.667 -62 302c0 178.667 44.667 317.834 134 417.501s213.333 149.5 372 149.5c153.333 0 275.166 -51 365.499 -153 s135.5 -240 135.5 -414zM287.001 548.999c0 -140 28 -246.667 84 -320s138.333 -110 247 -110s191.167 36.5 247.5 109.5s84.5 179.833 84.5 320.5c0 139.333 -28.167 245.166 -84.5 317.499s-139.5 108.5 -249.5 108.5c-108.667 0 -190.667 -35.667 -246 -107 s-83 -177.666 -83 -318.999z"
           id="path12702"
           style="stroke:#ff0000;fill:#ff0000" />
        <path
           transform="translate(32839.40000000001, 6144.000000000001)rotate(180) scale(-1, 1)"
           stroke-width="0"
           fill="#000000"
           d="M926 0l0.00195312 709c0 89.333 -20.333 156 -61 200s-104.334 66 -191.001 66c-114.667 0 -198.667 -31 -252 -93s-80 -164.333 -80 -307v-575h-166v1096h135l27 -150h8c34 54 81.667 95.833 143 125.5s129.666 44.5 204.999 44.5c132 0 231.333 -31.833 298 -95.5 s100 -165.5 100 -305.5v-715h-166z"
           id="path12704"
           style="stroke:#ff0000;fill:#ff0000" />
        <path
           transform="translate(34096.40000000001, 6144.000000000001)rotate(180) scale(-1, 1)"
           stroke-width="0"
           fill="#000000"
           d="M530 117c29.333 0 57.667 2.16797 85 6.50098s49 8.83301 65 13.5v-127c-18 -8.66699 -44.5 -15.834 -79.5 -21.501s-66.5 -8.5 -94.5 -8.5c-212 0 -318 111.667 -318 335v652h-157v80l157 69l70 234h96v-254h318v-129h-318v-645c0 -66 15.667 -116.667 47 -152 s74.333 -53 129 -53z"
           id="path12706"
           style="stroke:#ff0000;fill:#ff0000" />
        <path
           transform="translate(34819.40000000001, 6144.000000000001)rotate(180) scale(-1, 1)"
           stroke-width="0"
           fill="#000000"
           d="M676 1116c48.667 0 92.333 -4 131 -12l-23 -154c-45.333 10 -85.333 15 -120 15c-88.667 0 -164.5 -36 -227.5 -108s-94.5 -161.667 -94.5 -269v-588h-166v1096h137l19 -203h8c40.667 71.333 89.667 126.333 147 165s120.333 58 189 58z"
           id="path12708"
           style="stroke:#ff0000;fill:#ff0000" />
        <path
           transform="translate(35655.40000000001, 6144.000000000001)rotate(180) scale(-1, 1)"
           stroke-width="0"
           fill="#000000"
           d="M1122 549c0 -178.667 -44.999 -318.168 -134.999 -418.501s-214.333 -150.5 -373 -150.5c-98 0 -185 23 -261 69s-134.667 112 -176 198s-62 186.667 -62 302c0 178.667 44.667 317.834 134 417.501s213.333 149.5 372 149.5c153.333 0 275.166 -51 365.499 -153 s135.5 -240 135.5 -414zM287.001 548.999c0 -140 28 -246.667 84 -320s138.333 -110 247 -110s191.167 36.5 247.5 109.5s84.5 179.833 84.5 320.5c0 139.333 -28.167 245.166 -84.5 317.499s-139.5 108.5 -249.5 108.5c-108.667 0 -190.667 -35.667 -246 -107 s-83 -177.666 -83 -318.999z"
           id="path12710"
           style="stroke:#ff0000;fill:#ff0000" />
        <path
           transform="translate(36892.40000000001, 6144.000000000001)rotate(180) scale(-1, 1)"
           stroke-width="0"
           fill="#000000"
           d="M342 0h-166v1556h166v-1556z"
           id="path12712"
           style="stroke:#ff0000;fill:#ff0000" />
        <path
           transform="translate(37410.40000000001, 6144.000000000001)rotate(180) scale(-1, 1)"
           stroke-width="0"
           fill="#000000"
           d="M342 0h-166v1556h166v-1556z"
           id="path12714"
           style="stroke:#ff0000;fill:#ff0000" />
        <path
           transform="translate(37928.40000000001, 6144.000000000001)rotate(180) scale(-1, 1)"
           stroke-width="0"
           fill="#000000"
           d="M639 -20c-162 0 -289.833 49.334 -383.5 148.001s-140.5 235.667 -140.5 411c0 176.667 43.5 317 130.5 421s203.833 156 350.5 156c137.333 0 246 -45.167 326 -135.5s120 -209.5 120 -357.5v-105h-755c3.33301 -128.667 35.833 -226.334 97.5 -293.001 s148.5 -100 260.5 -100c118 0 234.667 24.667 350 74v-148c-58.667 -25.333 -114.167 -43.5 -166.5 -54.5s-115.5 -16.5 -189.5 -16.5zM594 977.001c-88 0 -158.167 -28.6689 -210.5 -86.002s-83.166 -136.666 -92.499 -237.999h573c0 104.667 -23.333 184.834 -70 240.501 s-113.334 83.5 -200.001 83.5z"
           id="path12716"
           style="stroke:#ff0000;fill:#ff0000" />
        <path
           transform="translate(39077.40000000001, 6144.000000000001)rotate(180) scale(-1, 1)"
           stroke-width="0"
           fill="#000000"
           d="M676 1116c48.667 0 92.333 -4 131 -12l-23 -154c-45.333 10 -85.333 15 -120 15c-88.667 0 -164.5 -36 -227.5 -108s-94.5 -161.667 -94.5 -269v-588h-166v1096h137l19 -203h8c40.667 71.333 89.667 126.333 147 165s120.333 58 189 58z"
           id="path12718"
           style="stroke:#ff0000;fill:#ff0000" />
      </g>
    </g>
    <g
       transform="scale(0.008650659179687499)"
       id="g12720"
       style="stroke:#ff0000;fill:#ff0000">
      <g
         transform="translate(-1262.5,819)"
         id="g12722"
         style="stroke:#ff0000;fill:#ff0000">
        <path
           transform="translate(22118.4, 22118.4)rotate(180) scale(-1, 1)"
           stroke-width="0"
           fill="#000000"
           d="M1128 1036c0 -148 -50.5 -261.833 -151.5 -341.5s-245.5 -119.5 -433.5 -119.5h-172v-575h-170v1462h379c365.333 0 548 -142 548 -426zM371 721h153c150.667 0 259.667 24.333 327 73s101 126.667 101 234c0 96.667 -31.667 168.667 -95 216s-162 71 -296 71h-190v-594z"
           id="path12724"
           style="stroke:#ff0000;fill:#ff0000" />
        <path
           transform="translate(23351.4, 22118.4)rotate(180) scale(-1, 1)"
           stroke-width="0"
           fill="#000000"
           d="M827 1331c-160.667 0 -287.498 -53.501 -380.498 -160.501s-139.5 -253.5 -139.5 -439.5c0 -191.333 44.833 -339.166 134.5 -443.499s217.5 -156.5 383.5 -156.5c102 0 218.333 18.333 349 55v-149c-101.333 -38 -226.333 -57 -375 -57 c-215.333 0 -381.5 65.333 -498.5 196s-175.5 316.334 -175.5 557.001c0 150.667 28.167 282.667 84.5 396s137.666 200.666 243.999 261.999s231.5 92 375.5 92c153.333 0 287.333 -28 402 -84l-72 -146c-110.667 52 -221.334 78 -332.001 78z"
           id="path12726"
           style="stroke:#ff0000;fill:#ff0000" />
      </g>
    </g>
  </g>
  <!-- Back-->
  <g
     transform="translate(398.0908785, 22.5000185) "
     id="g12728">
    <polygon
       style="stroke:#000000; fill:none; stroke-width:0.90000074"
       points="0, 0 44.291375, 0 44.291375, 14.17324 88.58275, 14.17324 88.58275, 0 116.92923, 0 116.92923, 14.17324 145.27571, 14.17324 145.27571, 0 173.62219, 0 173.62219, 14.17324 201.96867, 14.17324 201.96867, 0 230.31515, 0 230.31515, 14.17324 258.66163, 14.17324 258.66163, 0 287.00811, 0 287.00811, 14.17324 331.299485, 14.17324 331.299485, 0 375.59086, 0 375.59086, 40.748065 361.41762, 40.748065 361.41762, 81.49613 375.59086, 81.49613 375.59086, 109.84261 361.41762, 109.84261 361.41762, 138.18909 375.59086, 138.18909 375.59086, 166.53557 361.41762, 166.53557 361.41762, 194.88205 375.59086, 194.88205 375.59086, 223.22852999999998 361.41762, 223.22852999999998 361.41762, 263.976595 375.59086, 263.976595 375.59086, 304.72466 331.299485, 304.72466 331.299485, 290.55141999999995 287.00811, 290.55141999999995 287.00811, 304.72466 258.66163, 304.72466 258.66163, 290.55141999999995 230.31515, 290.55141999999995 230.31515, 304.72466 201.96867, 304.72466 201.96867, 290.55141999999995 173.62219, 290.55141999999995 173.62219, 304.72466 145.27571, 304.72466 145.27571, 290.55141999999995 116.92923, 290.55141999999995 116.92923, 304.72466 88.58275, 304.72466 88.58275, 290.55141999999995 44.291375, 290.55141999999995 44.291375, 304.72466 0, 304.72466 0, 263.976595 14.17324, 263.976595 14.17324, 223.22852999999998 0, 223.22852999999998 0, 194.88205 14.17324, 194.88205 14.17324, 166.53557 0, 166.53557 0, 138.18909 14.17324, 138.18909 14.17324, 109.84261 0, 109.84261 0, 81.49613 14.17324, 81.49613 14.17324, 40.748065 0, 40.748065 "
       id="polygon12730" />
  </g>
  <!-- Left-->
  <g
     transform="translate(773.6817384999999, 22.5000185) "
     id="g12732">
    <polygon
       style="stroke:#000000; fill:none; stroke-width:0.90000074"
       points="14.17324, 0 44.291375, 0 44.291375, 14.17324 88.58275, 14.17324 88.58275, 0 116.92923, 0 116.92923, 14.17324 145.27571, 14.17324 145.27571, 0 173.62219, 0 173.62219, 14.17324 201.96867, 14.17324 201.96867, 0 230.31515, 0 230.31515, 14.17324 258.66163, 14.17324 258.66163, 0 287.00811, 0 287.00811, 14.17324 331.299485, 14.17324 331.299485, 0 361.41762, 0 361.41762, 40.748065 375.59086, 40.748065 375.59086, 81.49613 361.41762, 81.49613 361.41762, 109.84261 375.59086, 109.84261 375.59086, 138.18909 361.41762, 138.18909 361.41762, 166.53557 375.59086, 166.53557 375.59086, 194.88205 361.41762, 194.88205 361.41762, 223.22852999999998 375.59086, 223.22852999999998 375.59086, 263.976595 361.41762, 263.976595 361.41762, 304.72466 331.299485, 304.72466 331.299485, 290.55141999999995 287.00811, 290.55141999999995 287.00811, 304.72466 258.66163, 304.72466 258.66163, 290.55141999999995 230.31515, 290.55141999999995 230.31515, 304.72466 201.96867, 304.72466 201.96867, 290.55141999999995 173.62219, 290.55141999999995 173.62219, 304.72466 145.27571, 304.72466 145.27571, 290.55141999999995 116.92923, 290.55141999999995 116.92923, 304.72466 88.58275, 304.72466 88.58275, 290.55141999999995 44.291375, 290.55141999999995 44.291375, 304.72466 14.17324, 304.72466 14.17324, 263.976595 0, 263.976595 0, 223.22852999999998 14.17324, 223.22852999999998 14.17324, 194.88205 0, 194.88205 0, 166.53557 14.17324, 166.53557 14.17324, 138.18909 0, 138.18909 0, 109.84261 14.17324, 109.84261 14.17324, 81.49613 0, 81.49613 0, 40.748065 14.17324, 40.748065 "
       id="polygon12734" />
  </g>
  <!-- Right-->
  <g
     transform="translate(773.6817384999999, 327.2246785) "
     id="g12736">
    <polygon
       style="stroke:#000000; fill:none; stroke-width:0.90000074"
       points="14.17324, 0 44.291375, 0 44.291375, 14.17324 88.58275, 14.17324 88.58275, 0 116.92923, 0 116.92923, 14.17324 145.27571, 14.17324 145.27571, 0 173.62219, 0 173.62219, 14.17324 201.96867, 14.17324 201.96867, 0 230.31515, 0 230.31515, 14.17324 258.66163, 14.17324 258.66163, 0 287.00811, 0 287.00811, 14.17324 331.299485, 14.17324 331.299485, 0 361.41762, 0 361.41762, 40.748065 375.59086, 40.748065 375.59086, 81.49613 361.41762, 81.49613 361.41762, 109.84261 375.59086, 109.84261 375.59086, 138.18909 361.41762, 138.18909 361.41762, 166.53557 375.59086, 166.53557 375.59086, 194.88205 361.41762, 194.88205 361.41762, 223.22852999999998 375.59086, 223.22852999999998 375.59086, 263.976595 361.41762, 263.976595 361.41762, 304.72466 331.299485, 304.72466 331.299485, 290.55141999999995 287.00811, 290.55141999999995 287.00811, 304.72466 258.66163, 304.72466 258.66163, 290.55141999999995 230.31515, 290.55141999999995 230.31515, 304.72466 201.96867, 304.72466 201.96867, 290.55141999999995 173.62219, 290.55141999999995 173.62219, 304.72466 145.27571, 304.72466 145.27571, 290.55141999999995 116.92923, 290.55141999999995 116.92923, 304.72466 88.58275, 304.72466 88.58275, 290.55141999999995 44.291375, 290.55141999999995 44.291375, 304.72466 14.17324, 304.72466 14.17324, 263.976595 0, 263.976595 0, 223.22852999999998 14.17324, 223.22852999999998 14.17324, 194.88205 0, 194.88205 0, 166.53557 14.17324, 166.53557 14.17324, 138.18909 0, 138.18909 0, 109.84261 14.17324, 109.84261 14.17324, 81.49613 0, 81.49613 0, 40.748065 14.17324, 40.748065 "
       id="polygon12738" />
  </g>
  <!-- Top-->
  <g
     transform="translate(22.5000185, 327.2246785) "
     id="g12740">
    <polygon
       style="stroke:#000000; fill:none; stroke-width:0.90000074"
       points="14.17324, 14.17324 44.291375, 14.17324 44.291375, 0 88.58275, 0 88.58275, 14.17324 116.92923, 14.17324 116.92923, 0 145.27571, 0 145.27571, 14.17324 173.62219, 14.17324 173.62219, 0 201.96867, 0 201.96867, 14.17324 230.31515, 14.17324 230.31515, 0 258.66163, 0 258.66163, 14.17324 287.00811, 14.17324 287.00811, 0 331.299485, 0 331.299485, 14.17324 361.41762, 14.17324 361.41762, 44.291375 375.59086, 44.291375 375.59086, 88.58275 361.41762, 88.58275 361.41762, 116.92923 375.59086, 116.92923 375.59086, 145.27571 361.41762, 145.27571 361.41762, 173.62219 375.59086, 173.62219 375.59086, 201.96867 361.41762, 201.96867 361.41762, 230.31515 375.59086, 230.31515 375.59086, 258.66163 361.41762, 258.66163 361.41762, 287.00811 375.59086, 287.00811 375.59086, 331.299485 361.41762, 331.299485 361.41762, 361.41762 331.299485, 361.41762 331.299485, 375.59086 287.00811, 375.59086 287.00811, 361.41762 258.66163, 361.41762 258.66163, 375.59086 230.31515, 375.59086 230.31515, 361.41762 201.96867, 361.41762 201.96867, 375.59086 173.62219, 375.59086 173.62219, 361.41762 145.27571, 361.41762 145.27571, 375.59086 116.92923, 375.59086 116.92923, 361.41762 88.58275, 361.41762 88.58275, 375.59086 44.291375, 375.59086 44.291375, 361.41762 14.17324, 361.41762 14.17324, 331.299485 0, 331.299485 0, 287.00811 14.17324, 287.00811 14.17324, 258.66163 0, 258.66163 0, 230.31515 14.17324, 230.31515 14.17324, 201.96867 0, 201.96867 0, 173.62219 14.17324, 173.62219 14.17324, 145.27571 0, 145.27571 0, 116.92923 14.17324, 116.92923 14.17324, 88.58275 0, 88.58275 0, 44.291375 14.17324, 44.291375 "
       id="polygon12742" />
  </g>
  <!-- Bottom-->
  <g
     transform="translate(398.0908785, 327.2246785) "
     id="g12744">
    <polygon
       style="stroke:#000000; fill:none; stroke-width:0.90000074"
       points="14.17324, 14.17324 44.291375, 14.17324 44.291375, 0 88.58275, 0 88.58275, 14.17324 116.92923, 14.17324 116.92923, 0 145.27571, 0 145.27571, 14.17324 173.62219, 14.17324 173.62219, 0 201.96867, 0 201.96867, 14.17324 230.31515, 14.17324 230.31515, 0 258.66163, 0 258.66163, 14.17324 287.00811, 14.17324 287.00811, 0 331.299485, 0 331.299485, 14.17324 361.41762, 14.17324 361.41762, 44.291375 375.59086, 44.291375 375.59086, 88.58275 361.41762, 88.58275 361.41762, 116.92923 375.59086, 116.92923 375.59086, 145.27571 361.41762, 145.27571 361.41762, 173.62219 375.59086, 173.62219 375.59086, 201.96867 361.41762, 201.96867 361.41762, 230.31515 375.59086, 230.31515 375.59086, 258.66163 361.41762, 258.66163 361.41762, 287.00811 375.59086, 287.00811 375.59086, 331.299485 361.41762, 331.299485 361.41762, 361.41762 331.299485, 361.41762 331.299485, 375.59086 287.00811, 375.59086 287.00811, 361.41762 258.66163, 361.41762 258.66163, 375.59086 230.31515, 375.59086 230.31515, 361.41762 201.96867, 361.41762 201.96867, 375.59086 173.62219, 375.59086 173.62219, 361.41762 145.27571, 361.41762 145.27571, 375.59086 116.92923, 375.59086 116.92923, 361.41762 88.58275, 361.41762 88.58275, 375.59086 44.291375, 375.59086 44.291375, 361.41762 14.17324, 361.41762 14.17324, 331.299485 0, 331.299485 0, 287.00811 14.17324, 287.00811 14.17324, 258.66163 0, 258.66163 0, 230.31515 14.17324, 230.31515 14.17324, 201.96867 0, 201.96867 0, 173.62219 14.17324, 173.62219 14.17324, 145.27571 0, 145.27571 0, 116.92923 14.17324, 116.92923 14.17324, 88.58275 0, 88.58275 0, 44.291375 14.17324, 44.291375 "
       id="polygon12746" />
  </g>
</svg>
